<?xml version="1.0" encoding="UTF-8"?>
<!DOCTYPE svg PUBLIC "-//W3C//DTD SVG 1.1//EN" "http://www.w3.org/Graphics/SVG/1.1/DTD/svg11.dtd">
<svg xmlns="http://www.w3.org/2000/svg" version="1.1" width="1200px" height="1200px" style="shape-rendering:geometricPrecision; text-rendering:geometricPrecision; image-rendering:optimizeQuality; fill-rule:evenodd; clip-rule:evenodd" xmlns:xlink="http://www.w3.org/1999/xlink">
<g><path style="opacity:0.978" fill="#fefffe" d="M 523.5,59.5 C 579.266,56.648 619.099,80.648 643,131.5C 646.586,141.659 650.419,151.659 654.5,161.5C 659.273,165.698 664.606,169.032 670.5,171.5C 681.745,184.415 684.578,199.082 679,215.5C 675.282,227.77 671.949,240.103 669,252.5C 666.665,260.173 663.498,267.506 659.5,274.5C 653.332,283.741 645.332,285.907 635.5,281C 630.707,277.875 626.541,274.042 623,269.5C 611.492,254.986 601.158,239.652 592,223.5C 586.974,211.037 586.308,198.37 590,185.5C 595.06,178.14 601.394,172.14 609,167.5C 610.515,165.453 611.349,163.119 611.5,160.5C 605.017,131.712 587.683,112.879 559.5,104C 505.407,90.4689 469.574,110.302 452,163.5C 441.817,221.635 462.651,264.801 514.5,293C 541.51,306.539 569.51,316.539 598.5,323C 628.739,328.371 659.073,334.038 689.5,340C 711.61,345.776 732.943,353.776 753.5,364C 801.123,389.385 825.123,429.218 825.5,483.5C 820.611,560.959 785.611,620.626 720.5,662.5C 694.301,678.112 666.301,688.112 636.5,692.5C 635.558,692.392 634.725,692.059 634,691.5C 633.333,673.833 633.333,656.167 634,638.5C 699.495,614.924 735.162,568.257 741,498.5C 741.667,486.833 741.667,475.167 741,463.5C 738.312,449.464 731.479,437.797 720.5,428.5C 705.064,417.097 688.397,408.263 670.5,402C 627.446,388.536 584.779,374.869 542.5,361C 507.056,348.086 473.723,330.92 442.5,309.5C 426.779,296.95 414.612,281.617 406,263.5C 392.055,224.18 392.055,184.846 406,145.5C 430.546,96.4021 469.713,67.7354 523.5,59.5 Z"/></g>
<g><path style="opacity:0.99" fill="#fefffe" d="M 129.5,436.5 C 323,435.167 516.667,435.167 710.5,436.5C 723.184,447.371 729.517,461.204 729.5,478C 729.358,516.13 718.525,550.63 697,581.5C 677.009,605.772 652.009,621.772 622,629.5C 621.829,687.207 621.329,744.874 620.5,802.5C 617.152,803.287 613.818,804.121 610.5,805C 606.133,805.364 601.966,805.53 598,805.5C 591.978,803.957 585.812,803.124 579.5,803C 578.809,801.933 578.309,800.766 578,799.5C 577.5,745.501 577.333,691.501 577.5,637.5C 503.204,634.478 435.871,610.978 375.5,567C 358.014,553.679 340.681,540.179 323.5,526.5C 280.954,494.706 233.288,476.872 180.5,473C 164.984,469.92 150.984,463.253 138.5,453C 133.868,448.249 130.868,442.749 129.5,436.5 Z"/></g>
<g><path style="opacity:0.981" fill="#fefffe" d="M 831.5,435.5 C 910.834,435.333 990.167,435.5 1069.5,436C 1068.53,442.417 1065.53,448.083 1060.5,453C 1043.56,467.464 1023.89,474.464 1001.5,474C 960.48,479.989 922.48,494.656 887.5,518C 865.152,534.838 842.818,551.671 820.5,568.5C 820.167,568 819.833,567.5 819.5,567C 838.313,524.489 842.313,480.656 831.5,435.5 Z"/></g>
<g><path style="opacity:0.975" fill="#fefffe" d="M 563.5,640.5 C 564.117,640.611 564.617,640.944 565,641.5C 565.833,661.508 565.666,681.508 564.5,701.5C 555.378,704.642 546.711,708.975 538.5,714.5C 526.495,727.997 520.828,743.83 521.5,762C 520.43,780.193 527.763,793.86 543.5,803C 565.921,814.546 589.921,819.213 615.5,817C 627.103,815.987 638.437,813.987 649.5,811C 660.126,807.848 669.459,802.348 677.5,794.5C 684.419,785.156 686.252,774.822 683,763.5C 680.494,756.862 675.661,753.029 668.5,752C 662.5,751.333 656.5,751.333 650.5,752C 644.838,753.248 639.171,754.415 633.5,755.5C 633.333,742.829 633.5,730.162 634,717.5C 638.795,714.725 643.962,712.892 649.5,712C 660.636,710.214 671.636,708.214 682.5,706C 701.24,704.743 719.24,707.41 736.5,714C 751.911,721.078 761.411,732.912 765,749.5C 768.156,769.184 763.656,786.851 751.5,802.5C 737.703,819.456 721.036,832.956 701.5,843C 636.472,874.247 572.139,872.914 508.5,839C 466.237,812.611 450.07,774.778 460,725.5C 478.041,676.629 512.541,648.296 563.5,640.5 Z"/></g>
<g><path style="opacity:0.917" fill="#fefffe" d="M 564.5,743.5 C 565.66,755.993 565.827,768.66 565,781.5C 560.616,785.28 556.116,788.947 551.5,792.5C 541.476,787.284 535.476,779.118 533.5,768C 536.633,763.033 540.633,758.866 545.5,755.5C 551.748,751.218 558.081,747.218 564.5,743.5 Z"/></g>
<g><path style="opacity:0.96" fill="#fefffe" d="M 490.5,843.5 C 504.284,852.973 518.95,860.64 534.5,866.5C 534.968,887.069 540.968,905.736 552.5,922.5C 563.821,935.886 577.821,944.719 594.5,949C 618.635,953.374 642.969,957.041 667.5,960C 679.187,962.179 690.52,965.513 701.5,970C 710.49,974.271 718.323,980.104 725,987.5C 729.072,992.896 730.406,998.896 729,1005.5C 726.159,1007.5 722.993,1008 719.5,1007C 712.273,1000.07 703.94,995.069 694.5,992C 674.898,990.213 655.231,988.546 635.5,987C 617.44,984.84 599.44,982.174 581.5,979C 557.06,973.452 534.726,962.952 514.5,947.5C 495.381,930.924 485.714,909.924 485.5,884.5C 486.233,870.688 487.9,857.021 490.5,843.5 Z"/></g>
<g><path style="opacity:0.936" fill="#fefffe" d="M 578.5,875.5 C 592.516,875.167 606.516,875.501 620.5,876.5C 621.833,897.833 621.833,919.167 620.5,940.5C 619.5,940.833 618.5,941.167 617.5,941.5C 606.669,939.448 596.002,936.614 585.5,933C 582.887,931.959 580.554,930.459 578.5,928.5C 577.18,910.833 577.18,893.167 578.5,875.5 Z"/></g>
<g><path style="opacity:0.959" fill="#fefffe" d="M 577.5,991.5 C 589.778,992.906 602.112,994.406 614.5,996C 616.78,996.233 618.78,997.066 620.5,998.5C 621.833,1009.17 621.833,1019.83 620.5,1030.5C 621.047,1043.41 627.38,1052.24 639.5,1057C 654.136,1062.2 669.136,1065.87 684.5,1068C 698.498,1070.84 711.832,1075.68 724.5,1082.5C 727.366,1084.87 730.366,1087.04 733.5,1089C 741.121,1090.66 748.787,1092 756.5,1093C 776.766,1093.22 796.432,1096.22 815.5,1102C 821.175,1104.51 826.175,1108.01 830.5,1112.5C 831.309,1114.07 831.643,1115.74 831.5,1117.5C 676.833,1117.5 522.167,1117.5 367.5,1117.5C 367.41,1113.58 369.077,1110.58 372.5,1108.5C 376.19,1106.32 379.856,1104.16 383.5,1102C 387.5,1100.67 391.5,1099.33 395.5,1098C 418.837,1095.03 442.17,1092.03 465.5,1089C 480.3,1078.23 496.633,1071.23 514.5,1068C 531.595,1066.23 547.928,1061.9 563.5,1055C 569.326,1051.84 573.826,1047.34 577,1041.5C 577.232,1037.45 577.732,1033.45 578.5,1029.5C 577.519,1016.88 577.186,1004.22 577.5,991.5 Z"/></g>
</svg>
